<svg width="56" height="56" viewBox="0 0 56 56" fill="none" xmlns="http://www.w3.org/2000/svg">
<circle cx="28" cy="28" r="28" fill="#D9D9D9"/>
<path d="M29 36.0897V28.0521C29 27.7857 28.8946 27.5301 28.7071 27.3417C28.5196 27.1533 28.2652 27.0474 28 27.0474H24C23.7348 27.0474 23.4804 27.1533 23.2929 27.3417C23.1054 27.5301 23 27.7857 23 28.0521V36.0897M17 25.038C16.9999 24.7457 17.0633 24.4569 17.1858 24.1918C17.3082 23.9267 17.4868 23.6915 17.709 23.5029L24.709 17.4747C25.07 17.1682 25.5274 17 26 17C26.4726 17 26.93 17.1682 27.291 17.4747L34.291 23.5029C34.5132 23.6915 34.6918 23.9267 34.8142 24.1918C34.9367 24.4569 35.0001 24.7457 35 25.038V34.0803C35 34.6132 34.7893 35.1243 34.4142 35.5011C34.0391 35.878 33.5304 36.0897 33 36.0897H19C18.4696 36.0897 17.9609 35.878 17.5858 35.5011C17.2107 35.1243 17 34.6132 17 34.0803V25.038Z" stroke="black" stroke-width="2" stroke-linecap="round" stroke-linejoin="round"/>
</svg>
