<svg width="56" height="56" viewBox="0 0 56 56" fill="none" xmlns="http://www.w3.org/2000/svg">
<circle cx="28" cy="28" r="28" fill="#D9D9D9"/>
<path d="M26.0171 23.3874V27.7748M33.0319 23.3874V27.7748M20.0044 27.7748H39.6458M36.0382 32.1622H39.0445C39.0445 32.1622 39.5456 30.9191 39.8462 30.1147C39.9464 29.8222 40.0467 29.5297 40.0467 29.2373C40.0467 28.9448 39.9464 28.6523 39.8462 28.3598L38.4433 24.7036C38.1426 23.9724 37.1405 23.3874 36.0382 23.3874H22.0086C21.4771 23.3874 20.9673 23.5415 20.5914 23.8157C20.2156 24.09 20.0044 24.462 20.0044 24.8499V32.1622H23.0107M36.0382 32.1622C36.0382 32.9699 35.1409 33.6247 34.034 33.6247C32.9271 33.6247 32.0298 32.9699 32.0298 32.1622M36.0382 32.1622C36.0382 31.3545 35.1409 30.6997 34.034 30.6997C32.9271 30.6997 32.0298 31.3545 32.0298 32.1622M23.0107 32.1622C23.0107 32.9699 23.9081 33.6247 25.015 33.6247C26.1219 33.6247 27.0192 32.9699 27.0192 32.1622M23.0107 32.1622C23.0107 31.3545 23.9081 30.6997 25.015 30.6997C26.1219 30.6997 27.0192 31.3545 27.0192 32.1622M27.0192 32.1622H32.0298" stroke="black" stroke-width="2" stroke-linecap="round" stroke-linejoin="round"/>
</svg>
