<svg width="40" height="38" viewBox="0 0 40 38" fill="none" xmlns="http://www.w3.org/2000/svg">
<path d="M1.19451 36V28.7273H3.78684C4.35029 28.7273 4.81786 28.8243 5.18954 29.0185C5.5636 29.2126 5.84295 29.4813 6.02761 29.8246C6.21227 30.1655 6.3046 30.5597 6.3046 31.0071C6.3046 31.4522 6.21109 31.844 6.02406 32.1825C5.8394 32.5187 5.56004 32.7803 5.18599 32.9673C4.81431 33.1544 4.34674 33.2479 3.78329 33.2479H1.81951V32.3033H3.68386C4.03897 32.3033 4.3278 32.2524 4.55034 32.1506C4.77524 32.0488 4.93978 31.9008 5.04395 31.7067C5.14811 31.5125 5.2002 31.2794 5.2002 31.0071C5.2002 30.7325 5.14693 30.4946 5.04039 30.2933C4.93623 30.0921 4.77169 29.9382 4.54679 29.8317C4.32425 29.7228 4.03187 29.6683 3.66966 29.6683H2.29181V36H1.19451ZM4.78471 32.7188L6.58159 36H5.33159L3.57022 32.7188H4.78471ZM9.83709 36.1101C9.29969 36.1101 8.83685 35.9953 8.4486 35.7656C8.06271 35.5336 7.76441 35.2081 7.55371 34.7891C7.34538 34.3677 7.24121 33.8741 7.24121 33.3082C7.24121 32.7495 7.34538 32.2571 7.55371 31.831C7.76441 31.4048 8.05797 31.0722 8.43439 30.8331C8.81318 30.594 9.25589 30.4744 9.76252 30.4744C10.0703 30.4744 10.3686 30.5253 10.6574 30.6271C10.9462 30.7289 11.2055 30.8887 11.4351 31.1065C11.6647 31.3243 11.8459 31.6072 11.9784 31.9553C12.111 32.3009 12.1773 32.7211 12.1773 33.2159V33.5923H7.84135V32.7969H11.1368C11.1368 32.5175 11.08 32.2701 10.9664 32.0547C10.8527 31.8369 10.6929 31.6652 10.4869 31.5398C10.2834 31.4143 10.0442 31.3516 9.76962 31.3516C9.47132 31.3516 9.21091 31.425 8.98837 31.5717C8.7682 31.7161 8.59775 31.9055 8.47701 32.1399C8.35864 32.3719 8.29945 32.6241 8.29945 32.8963V33.5178C8.29945 33.8823 8.36337 34.1925 8.49121 34.4482C8.62142 34.7038 8.80253 34.8991 9.03453 35.0341C9.26654 35.1667 9.53761 35.233 9.84775 35.233C10.049 35.233 10.2325 35.2045 10.3982 35.1477C10.5639 35.0885 10.7071 35.0009 10.8279 34.8849C10.9486 34.7689 11.0409 34.6257 11.1048 34.4553L12.1098 34.6364C12.0293 34.9323 11.8849 35.1915 11.6766 35.4141C11.4706 35.6342 11.2114 35.8059 10.8989 35.929C10.5887 36.0497 10.2348 36.1101 9.83709 36.1101ZM15.653 36.1101C15.125 36.1101 14.6705 35.9905 14.2893 35.7514C13.9105 35.5099 13.6193 35.1773 13.4157 34.7536C13.2122 34.3298 13.1104 33.8445 13.1104 33.2976C13.1104 32.7436 13.2145 32.2547 13.4229 31.831C13.6312 31.4048 13.9247 31.0722 14.3035 30.8331C14.6823 30.594 15.1286 30.4744 15.6423 30.4744C16.0566 30.4744 16.4259 30.5514 16.7503 30.7053C17.0746 30.8568 17.3362 31.0698 17.5351 31.3445C17.7363 31.6191 17.8559 31.9399 17.8937 32.3068H16.8604C16.8035 32.0511 16.6733 31.831 16.4697 31.6463C16.2685 31.4616 15.9986 31.3693 15.6601 31.3693C15.3641 31.3693 15.1049 31.4474 14.8824 31.6037C14.6622 31.7576 14.4906 31.9777 14.3675 32.2642C14.2443 32.5483 14.1828 32.8845 14.1828 33.2727C14.1828 33.6705 14.2432 34.0137 14.3639 34.3026C14.4846 34.5914 14.6551 34.8151 14.8753 34.9737C15.0978 35.1323 15.3594 35.2116 15.6601 35.2116C15.8613 35.2116 16.0436 35.175 16.2069 35.1016C16.3727 35.0258 16.5112 34.9181 16.6224 34.7784C16.7361 34.6387 16.8154 34.4706 16.8604 34.2741H17.8937C17.8559 34.6269 17.741 34.9418 17.5493 35.2188C17.3575 35.4957 17.1006 35.7135 16.7787 35.8722C16.4591 36.0308 16.0838 36.1101 15.653 36.1101ZM21.3268 36.1101C20.8154 36.1101 20.3692 35.9929 19.988 35.7585C19.6069 35.5241 19.3109 35.1963 19.1002 34.7749C18.8895 34.3535 18.7842 33.861 18.7842 33.2976C18.7842 32.7318 18.8895 32.237 19.1002 31.8132C19.3109 31.3894 19.6069 31.0604 19.988 30.826C20.3692 30.5916 20.8154 30.4744 21.3268 30.4744C21.8382 30.4744 22.2844 30.5916 22.6656 30.826C23.0467 31.0604 23.3427 31.3894 23.5534 31.8132C23.7641 32.237 23.8694 32.7318 23.8694 33.2976C23.8694 33.861 23.7641 34.3535 23.5534 34.7749C23.3427 35.1963 23.0467 35.5241 22.6656 35.7585C22.2844 35.9929 21.8382 36.1101 21.3268 36.1101ZM21.3303 35.2188C21.6618 35.2188 21.9364 35.1312 22.1542 34.956C22.372 34.7808 22.533 34.5476 22.6372 34.2564C22.7437 33.9652 22.797 33.6444 22.797 33.294C22.797 32.946 22.7437 32.6264 22.6372 32.3352C22.533 32.0417 22.372 31.8061 22.1542 31.6286C21.9364 31.451 21.6618 31.3622 21.3303 31.3622C20.9965 31.3622 20.7195 31.451 20.4994 31.6286C20.2816 31.8061 20.1194 32.0417 20.0129 32.3352C19.9087 32.6264 19.8566 32.946 19.8566 33.294C19.8566 33.6444 19.9087 33.9652 20.0129 34.2564C20.1194 34.5476 20.2816 34.7808 20.4994 34.956C20.7195 35.1312 20.9965 35.2188 21.3303 35.2188ZM25.0546 36V30.5455H26.0809V31.4119H26.1377C26.2371 31.1184 26.4123 30.8875 26.6633 30.7195C26.9166 30.549 27.203 30.4638 27.5226 30.4638C27.5889 30.4638 27.6671 30.4661 27.757 30.4709C27.8493 30.4756 27.9215 30.4815 27.9736 30.4886V31.5043C27.931 31.4924 27.8553 31.4794 27.7464 31.4652C27.6375 31.4486 27.5286 31.4403 27.4197 31.4403C27.1687 31.4403 26.945 31.4936 26.7485 31.6001C26.5544 31.7043 26.4005 31.8499 26.2868 32.0369C26.1732 32.2216 26.1164 32.4323 26.1164 32.669V36H25.0546ZM30.7391 36.1065C30.2987 36.1065 29.9057 35.9941 29.5601 35.7692C29.2168 35.5419 28.9469 35.2187 28.7504 34.7997C28.5563 34.3783 28.4593 33.8729 28.4593 33.2834C28.4593 32.6939 28.5575 32.1896 28.754 31.7706C28.9529 31.3516 29.2251 31.0308 29.5708 30.8082C29.9164 30.5857 30.3082 30.4744 30.7462 30.4744C31.0847 30.4744 31.357 30.5312 31.5629 30.6449C31.7713 30.7562 31.9323 30.8864 32.0459 31.0355C32.1619 31.1847 32.2519 31.3161 32.3158 31.4297H32.3797V28.7273H33.4415V36H32.4046V35.1513H32.3158C32.2519 35.2673 32.1595 35.3999 32.0388 35.549C31.9204 35.6982 31.7571 35.8284 31.5487 35.9396C31.3404 36.0509 31.0705 36.1065 30.7391 36.1065ZM30.9735 35.201C31.2789 35.201 31.5369 35.1205 31.7476 34.9595C31.9607 34.7962 32.1217 34.5701 32.2306 34.2812C32.3418 33.9924 32.3975 33.6562 32.3975 33.2727C32.3975 32.8939 32.343 32.5625 32.2341 32.2784C32.1252 31.9943 31.9654 31.773 31.7547 31.6143C31.544 31.4557 31.2836 31.3764 30.9735 31.3764C30.6539 31.3764 30.3875 31.4593 30.1744 31.625C29.9614 31.7907 29.8004 32.0168 29.6915 32.3033C29.585 32.5897 29.5317 32.9129 29.5317 33.2727C29.5317 33.6373 29.5861 33.9652 29.695 34.2564C29.8039 34.5476 29.9649 34.7784 30.178 34.9489C30.3934 35.117 30.6586 35.201 30.9735 35.201ZM39.0443 31.8771L38.0819 32.0476C38.0417 31.9245 37.9778 31.8073 37.8902 31.696C37.805 31.5848 37.689 31.4936 37.5422 31.4226C37.3954 31.3516 37.2119 31.3161 36.9917 31.3161C36.6911 31.3161 36.4401 31.3835 36.2389 31.5185C36.0377 31.651 35.9371 31.8227 35.9371 32.0334C35.9371 32.2157 36.0045 32.3625 36.1395 32.4737C36.2744 32.585 36.4922 32.6761 36.7929 32.7472L37.6594 32.946C38.1613 33.062 38.5353 33.2408 38.7815 33.4822C39.0277 33.7237 39.1508 34.0374 39.1508 34.4233C39.1508 34.75 39.0561 35.0412 38.8667 35.2969C38.6797 35.5502 38.4181 35.7491 38.0819 35.8935C37.7481 36.0379 37.3611 36.1101 36.9207 36.1101C36.3099 36.1101 35.8116 35.9799 35.4257 35.7195C35.0398 35.4567 34.8031 35.0838 34.7155 34.6009L35.7417 34.4446C35.8057 34.7121 35.9371 34.9145 36.1359 35.0518C36.3348 35.1868 36.594 35.2543 36.9136 35.2543C37.2616 35.2543 37.5398 35.1821 37.7481 35.0376C37.9565 34.8909 38.0606 34.7121 38.0606 34.5014C38.0606 34.331 37.9967 34.1877 37.8689 34.0717C37.7434 33.9557 37.5505 33.8681 37.29 33.8089L36.3667 33.6065C35.8577 33.4905 35.4813 33.3059 35.2375 33.0526C34.996 32.7992 34.8753 32.4785 34.8753 32.0902C34.8753 31.7682 34.9652 31.4865 35.1452 31.245C35.3251 31.0036 35.5737 30.8153 35.8909 30.6804C36.2081 30.5431 36.5715 30.4744 36.9811 30.4744C37.5706 30.4744 38.0346 30.6023 38.3731 30.858C38.7117 31.1113 38.9354 31.451 39.0443 31.8771Z" fill="#00C853"/>
<rect width="24" height="24" transform="translate(8)" fill="#00C853"/>
<path d="M23 12H18M23 8H18M27 17V5C27 4.46957 26.7893 3.96086 26.4142 3.58579C26.0391 3.21071 25.5304 3 25 3H12M12 3C12.5304 3 13.0391 3.21071 13.4142 3.58579C13.7893 3.96086 14 4.46957 14 5V19C14 19.5304 14.2107 20.0391 14.5858 20.4142C14.9609 20.7893 15.4696 21 16 21M12 3C11.4696 3 10.9609 3.21071 10.5858 3.58579C10.2107 3.96086 10 4.46957 10 5V7C10 7.26522 10.1054 7.51957 10.2929 7.70711C10.4804 7.89464 10.7348 8 11 8H14M16 21H28C28.5304 21 29.0391 20.7893 29.4142 20.4142C29.7893 20.0391 30 19.5304 30 19V18C30 17.7348 29.8946 17.4804 29.7071 17.2929C29.5196 17.1054 29.2652 17 29 17H19C18.7348 17 18.4804 17.1054 18.2929 17.2929C18.1054 17.4804 18 17.7348 18 18V19C18 19.5304 17.7893 20.0391 17.4142 20.4142C17.0391 20.7893 16.5304 21 16 21Z" stroke="black" stroke-width="2" stroke-linecap="round" stroke-linejoin="round"/>
</svg>
