<svg width="100" height="100" viewBox="0 0 100 100" fill="none" xmlns="http://www.w3.org/2000/svg">
<circle cx="50" cy="50" r="50" fill="white"/>
<path d="M64.4211 43.4444V40.1111C64.4211 39.8164 64.2602 39.5338 63.974 39.3254C63.6878 39.1171 63.2995 39 62.8947 39H43.0526C42.243 39 41.4666 39.2341 40.8941 39.6509C40.3216 40.0676 40 40.6329 40 41.2222C40 41.8116 40.3216 42.3768 40.8941 42.7936C41.4666 43.2103 42.243 43.4444 43.0526 43.4444H65.9474C66.3522 43.4444 66.7404 43.5615 67.0266 43.7699C67.3129 43.9783 67.4737 44.2609 67.4737 44.5556V49H62.8947C62.0851 49 61.3087 49.2341 60.7362 49.6509C60.1637 50.0676 59.8421 50.6329 59.8421 51.2222C69 71 60.1637 52.3768 60.7362 52.7936C61.3087 53.2103 62.0851 53.4444 62.8947 53.4444H67.4737C67.8785 53.4444 68.2667 53.3274 68.553 53.119C68.8392 52.9106 69 52.628 69 52.3333V50.1111C69 49.8164 68.8392 49.5338 68.553 49.3254C68.2667 49.1171 67.8785 49 67.4737 49" fill="#00C853"/>
<path d="M40 41.2222V56.7778C40 57.3671 40.3216 57.9324 40.8941 58.3491C41.4666 58.7659 42.243 59 43.0526 59H65.9474C66.3522 59 66.7404 58.8829 67.0266 58.6746C67.3129 58.4662 67.4737 58.1836 67.4737 57.8889V53.4444" fill="#00C853"/>
<path d="M64.4211 43.4444V40.1111C64.4211 39.8164 64.2602 39.5338 63.974 39.3254C63.6878 39.1171 63.2995 39 62.8947 39H43.0526C42.243 39 41.4666 39.2341 40.8941 39.6509C40.3216 40.0676 40 40.6329 40 41.2222M40 41.2222C40 41.8116 40.3216 42.3768 40.8941 42.7936C41.4666 43.2103 42.243 43.4444 43.0526 43.4444H65.9474C66.3522 43.4444 66.7404 43.5615 67.0266 43.7699C67.3129 43.9783 67.4737 44.2609 67.4737 44.5556V49M40 41.2222V56.7778C40 57.3671 40.3216 57.9324 40.8941 58.3491C41.4666 58.7659 42.243 59 43.0526 59H65.9474C66.3522 59 66.7404 58.8829 67.0266 58.6746C67.3129 58.4662 67.4737 58.1836 67.4737 57.8889V53.4444M67.4737 49H62.8947C62.0851 49 61.3087 49.2341 60.7362 49.6509C60.1637 50.0676 59.8421 50.6329 59.8421 51.2222C69 71 60.1637 52.3768 60.7362 52.7936C61.3087 53.2103 62.0851 53.4444 62.8947 53.4444H67.4737M67.4737 49C67.8785 49 68.2667 49.1171 68.553 49.3254C68.8392 49.5338 69 49.8164 69 50.1111V52.3333C69 52.628 68.8392 52.9106 68.553 53.119C68.2667 53.3274 67.8785 53.4444 67.4737 53.4444" stroke="white" stroke-width="2" stroke-linecap="round" stroke-linejoin="round"/>
</svg>
