<svg width="33" height="39" viewBox="0 0 33 39" fill="none" xmlns="http://www.w3.org/2000/svg">
<path d="M7.23109 32.0923H6.12314C6.08052 31.8556 6.00121 31.6473 5.88521 31.4673C5.76921 31.2874 5.62716 31.1347 5.45907 31.0092C5.29099 30.8838 5.10278 30.7891 4.89444 30.7251C4.68848 30.6612 4.46949 30.6293 4.23748 30.6293C3.81845 30.6293 3.44321 30.7346 3.11177 30.9453C2.7827 31.156 2.52228 31.465 2.33052 31.8722C2.14113 32.2794 2.04643 32.7765 2.04643 33.3636C2.04643 33.9555 2.14113 34.455 2.33052 34.8622C2.52228 35.2694 2.78388 35.5772 3.11532 35.7855C3.44676 35.9938 3.81963 36.098 4.23393 36.098C4.46357 36.098 4.68137 36.0672 4.88734 36.0057C5.09567 35.9418 5.28388 35.8482 5.45197 35.7251C5.62006 35.602 5.7621 35.4517 5.87811 35.2741C5.99648 35.0942 6.07815 34.8883 6.12314 34.6562L7.23109 34.6598C7.1719 35.0173 7.05708 35.3464 6.88663 35.647C6.71854 35.9453 6.50192 36.2034 6.23677 36.4212C5.97399 36.6366 5.67333 36.8035 5.33478 36.9219C4.99624 37.0402 4.62692 37.0994 4.22683 37.0994C3.59709 37.0994 3.03601 36.9503 2.54359 36.652C2.05117 36.3513 1.66291 35.9216 1.37882 35.3629C1.09709 34.8042 0.956232 34.1378 0.956232 33.3636C0.956232 32.5871 1.09828 31.9207 1.38237 31.3643C1.66646 30.8056 2.05472 30.3771 2.54714 30.0788C3.03957 29.7782 3.59946 29.6278 4.22683 29.6278C4.61272 29.6278 4.97257 29.6835 5.30637 29.7947C5.64255 29.9036 5.9444 30.0646 6.21191 30.2777C6.47943 30.4884 6.70079 30.7464 6.87598 31.0518C7.05117 31.3549 7.16954 31.7017 7.23109 32.0923ZM9.52069 33.7614V37H8.4589V29.7273H9.50648V32.4332H9.57395C9.70179 32.1397 9.89711 31.9065 10.1599 31.7337C10.4227 31.5608 10.766 31.4744 11.1897 31.4744C11.5638 31.4744 11.8905 31.5514 12.1698 31.7053C12.4516 31.8591 12.6694 32.0888 12.8232 32.3942C12.9795 32.6972 13.0576 33.076 13.0576 33.5305V37H11.9958V33.6584C11.9958 33.2583 11.8928 32.9482 11.6869 32.728C11.4809 32.5054 11.1945 32.3942 10.8275 32.3942C10.5766 32.3942 10.3517 32.4474 10.1528 32.554C9.95629 32.6605 9.80123 32.8168 9.68759 33.0227C9.57632 33.2263 9.52069 33.4725 9.52069 33.7614ZM16.0619 37.1207C15.7162 37.1207 15.4037 37.0568 15.1244 36.929C14.845 36.7988 14.6237 36.6106 14.4603 36.3643C14.2993 36.1181 14.2188 35.8163 14.2188 35.4588C14.2188 35.151 14.278 34.8977 14.3964 34.6989C14.5148 34.5 14.6746 34.3426 14.8758 34.2266C15.077 34.1106 15.3019 34.023 15.5505 33.9638C15.7991 33.9046 16.0524 33.8596 16.3105 33.8288C16.6372 33.791 16.9023 33.7602 17.1059 33.7365C17.3095 33.7105 17.4575 33.669 17.5498 33.6122C17.6421 33.5554 17.6883 33.4631 17.6883 33.3352V33.3104C17.6883 33.0002 17.6007 32.7599 17.4255 32.5895C17.2527 32.419 16.9946 32.3338 16.6514 32.3338C16.2939 32.3338 16.0122 32.4131 15.8062 32.5717C15.6026 32.728 15.4617 32.902 15.3836 33.0938L14.3857 32.8665C14.5041 32.535 14.6769 32.2675 14.9042 32.0639C15.1338 31.858 15.3978 31.7088 15.6961 31.6165C15.9944 31.5218 16.3081 31.4744 16.6372 31.4744C16.855 31.4744 17.0858 31.5005 17.3296 31.5526C17.5758 31.6023 17.8055 31.6946 18.0186 31.8295C18.234 31.9645 18.4104 32.1574 18.5477 32.4084C18.685 32.657 18.7536 32.9801 18.7536 33.3778V37H17.7167V36.2543H17.6741C17.6054 36.3916 17.5025 36.5265 17.3651 36.6591C17.2278 36.7917 17.0515 36.9018 16.836 36.9893C16.6206 37.0769 16.3625 37.1207 16.0619 37.1207ZM16.2927 36.2685C16.5863 36.2685 16.8372 36.2105 17.0455 36.0945C17.2562 35.9785 17.416 35.8269 17.5249 35.6399C17.6362 35.4505 17.6919 35.2481 17.6919 35.0327V34.3295C17.654 34.3674 17.5806 34.4029 17.4717 34.4361C17.3651 34.4669 17.2432 34.4941 17.1059 34.5178C16.9686 34.5391 16.8348 34.5592 16.7046 34.5781C16.5744 34.5947 16.4655 34.6089 16.3779 34.6207C16.172 34.6468 15.9838 34.6906 15.8133 34.7521C15.6452 34.8137 15.5103 34.9025 15.4085 35.0185C15.309 35.1321 15.2593 35.2836 15.2593 35.473C15.2593 35.7358 15.3564 35.9347 15.5505 36.0696C15.7446 36.2022 15.992 36.2685 16.2927 36.2685ZM20.1679 37V31.5455H21.1942V32.4119H21.251C21.3504 32.1184 21.5256 31.8875 21.7765 31.7195C22.0299 31.549 22.3163 31.4638 22.6359 31.4638C22.7022 31.4638 22.7803 31.4661 22.8703 31.4709C22.9626 31.4756 23.0348 31.4815 23.0869 31.4886V32.5043C23.0443 32.4924 22.9685 32.4794 22.8596 32.4652C22.7507 32.4486 22.6418 32.4403 22.5329 32.4403C22.282 32.4403 22.0583 32.4936 21.8618 32.6001C21.6676 32.7043 21.5138 32.8499 21.4001 33.0369C21.2865 33.2216 21.2297 33.4323 21.2297 33.669V37H20.1679ZM26.8742 31.5455V32.3977H23.8948V31.5455H26.8742ZM24.6938 30.2386H25.7556V35.3984C25.7556 35.6044 25.7864 35.7595 25.8479 35.8636C25.9095 35.9654 25.9888 36.0353 26.0858 36.0732C26.1853 36.1087 26.293 36.1264 26.409 36.1264C26.4942 36.1264 26.5688 36.1205 26.6327 36.1087C26.6966 36.0968 26.7464 36.0874 26.7819 36.0803L26.9736 36.9574C26.9121 36.9811 26.8245 37.0047 26.7108 37.0284C26.5972 37.0545 26.4552 37.0687 26.2847 37.071C26.0054 37.0758 25.7449 37.026 25.5035 36.9219C25.262 36.8177 25.0667 36.6567 24.9175 36.4389C24.7684 36.2211 24.6938 35.9477 24.6938 35.6186V30.2386ZM32.0482 32.8771L31.0858 33.0476C31.0456 32.9245 30.9817 32.8073 30.8941 32.696C30.8089 32.5848 30.6929 32.4936 30.5461 32.4226C30.3993 32.3516 30.2158 32.3161 29.9956 32.3161C29.695 32.3161 29.444 32.3835 29.2428 32.5185C29.0416 32.651 28.941 32.8227 28.941 33.0334C28.941 33.2157 29.0084 33.3625 29.1434 33.4737C29.2783 33.585 29.4961 33.6761 29.7968 33.7472L30.6633 33.946C31.1652 34.062 31.5392 34.2408 31.7854 34.4822C32.0316 34.7237 32.1547 35.0374 32.1547 35.4233C32.1547 35.75 32.06 36.0412 31.8706 36.2969C31.6836 36.5502 31.422 36.7491 31.0858 36.8935C30.752 37.0379 30.365 37.1101 29.9246 37.1101C29.3138 37.1101 28.8155 36.9799 28.4296 36.7195C28.0437 36.4567 27.807 36.0838 27.7194 35.6009L28.7456 35.4446C28.8096 35.7121 28.941 35.9145 29.1398 36.0518C29.3387 36.1868 29.5979 36.2543 29.9175 36.2543C30.2655 36.2543 30.5437 36.1821 30.752 36.0376C30.9604 35.8909 31.0645 35.7121 31.0645 35.5014C31.0645 35.331 31.0006 35.1877 30.8728 35.0717C30.7473 34.9557 30.5544 34.8681 30.2939 34.8089L29.3706 34.6065C28.8617 34.4905 28.4852 34.3059 28.2414 34.0526C27.9999 33.7992 27.8792 33.4785 27.8792 33.0902C27.8792 32.7682 27.9691 32.4865 28.1491 32.245C28.329 32.0036 28.5776 31.8153 28.8948 31.6804C29.212 31.5431 29.5754 31.4744 29.985 31.4744C30.5745 31.4744 31.0385 31.6023 31.377 31.858C31.7156 32.1113 31.9393 32.451 32.0482 32.8771Z" fill="white"/>
<path d="M7.23109 32.0923H6.12314C6.08052 31.8556 6.00121 31.6473 5.88521 31.4673C5.76921 31.2874 5.62716 31.1347 5.45907 31.0092C5.29099 30.8838 5.10278 30.7891 4.89444 30.7251C4.68848 30.6612 4.46949 30.6293 4.23748 30.6293C3.81845 30.6293 3.44321 30.7346 3.11177 30.9453C2.7827 31.156 2.52228 31.465 2.33052 31.8722C2.14113 32.2794 2.04643 32.7765 2.04643 33.3636C2.04643 33.9555 2.14113 34.455 2.33052 34.8622C2.52228 35.2694 2.78388 35.5772 3.11532 35.7855C3.44676 35.9938 3.81963 36.098 4.23393 36.098C4.46357 36.098 4.68137 36.0672 4.88734 36.0057C5.09567 35.9418 5.28388 35.8482 5.45197 35.7251C5.62006 35.602 5.7621 35.4517 5.87811 35.2741C5.99648 35.0942 6.07815 34.8883 6.12314 34.6562L7.23109 34.6598C7.1719 35.0173 7.05708 35.3464 6.88663 35.647C6.71854 35.9453 6.50192 36.2034 6.23677 36.4212C5.97399 36.6366 5.67333 36.8035 5.33478 36.9219C4.99624 37.0402 4.62692 37.0994 4.22683 37.0994C3.59709 37.0994 3.03601 36.9503 2.54359 36.652C2.05117 36.3513 1.66291 35.9216 1.37882 35.3629C1.09709 34.8042 0.956232 34.1378 0.956232 33.3636C0.956232 32.5871 1.09828 31.9207 1.38237 31.3643C1.66646 30.8056 2.05472 30.3771 2.54714 30.0788C3.03957 29.7782 3.59946 29.6278 4.22683 29.6278C4.61272 29.6278 4.97257 29.6835 5.30637 29.7947C5.64255 29.9036 5.9444 30.0646 6.21191 30.2777C6.47943 30.4884 6.70079 30.7464 6.87598 31.0518C7.05117 31.3549 7.16954 31.7017 7.23109 32.0923ZM9.52069 33.7614V37H8.4589V29.7273H9.50648V32.4332H9.57395C9.70179 32.1397 9.89711 31.9065 10.1599 31.7337C10.4227 31.5608 10.766 31.4744 11.1897 31.4744C11.5638 31.4744 11.8905 31.5514 12.1698 31.7053C12.4516 31.8591 12.6694 32.0888 12.8232 32.3942C12.9795 32.6972 13.0576 33.076 13.0576 33.5305V37H11.9958V33.6584C11.9958 33.2583 11.8928 32.9482 11.6869 32.728C11.4809 32.5054 11.1945 32.3942 10.8275 32.3942C10.5766 32.3942 10.3517 32.4474 10.1528 32.554C9.95629 32.6605 9.80123 32.8168 9.68759 33.0227C9.57632 33.2263 9.52069 33.4725 9.52069 33.7614ZM16.0619 37.1207C15.7162 37.1207 15.4037 37.0568 15.1244 36.929C14.845 36.7988 14.6237 36.6106 14.4603 36.3643C14.2993 36.1181 14.2188 35.8163 14.2188 35.4588C14.2188 35.151 14.278 34.8977 14.3964 34.6989C14.5148 34.5 14.6746 34.3426 14.8758 34.2266C15.077 34.1106 15.3019 34.023 15.5505 33.9638C15.7991 33.9046 16.0524 33.8596 16.3105 33.8288C16.6372 33.791 16.9023 33.7602 17.1059 33.7365C17.3095 33.7105 17.4575 33.669 17.5498 33.6122C17.6421 33.5554 17.6883 33.4631 17.6883 33.3352V33.3104C17.6883 33.0002 17.6007 32.7599 17.4255 32.5895C17.2527 32.419 16.9946 32.3338 16.6514 32.3338C16.2939 32.3338 16.0122 32.4131 15.8062 32.5717C15.6026 32.728 15.4617 32.902 15.3836 33.0938L14.3857 32.8665C14.5041 32.535 14.6769 32.2675 14.9042 32.0639C15.1338 31.858 15.3978 31.7088 15.6961 31.6165C15.9944 31.5218 16.3081 31.4744 16.6372 31.4744C16.855 31.4744 17.0858 31.5005 17.3296 31.5526C17.5758 31.6023 17.8055 31.6946 18.0186 31.8295C18.234 31.9645 18.4104 32.1574 18.5477 32.4084C18.685 32.657 18.7536 32.9801 18.7536 33.3778V37H17.7167V36.2543H17.6741C17.6054 36.3916 17.5025 36.5265 17.3651 36.6591C17.2278 36.7917 17.0515 36.9018 16.836 36.9893C16.6206 37.0769 16.3625 37.1207 16.0619 37.1207ZM16.2927 36.2685C16.5863 36.2685 16.8372 36.2105 17.0455 36.0945C17.2562 35.9785 17.416 35.8269 17.5249 35.6399C17.6362 35.4505 17.6919 35.2481 17.6919 35.0327V34.3295C17.654 34.3674 17.5806 34.4029 17.4717 34.4361C17.3651 34.4669 17.2432 34.4941 17.1059 34.5178C16.9686 34.5391 16.8348 34.5592 16.7046 34.5781C16.5744 34.5947 16.4655 34.6089 16.3779 34.6207C16.172 34.6468 15.9838 34.6906 15.8133 34.7521C15.6452 34.8137 15.5103 34.9025 15.4085 35.0185C15.309 35.1321 15.2593 35.2836 15.2593 35.473C15.2593 35.7358 15.3564 35.9347 15.5505 36.0696C15.7446 36.2022 15.992 36.2685 16.2927 36.2685ZM20.1679 37V31.5455H21.1942V32.4119H21.251C21.3504 32.1184 21.5256 31.8875 21.7765 31.7195C22.0299 31.549 22.3163 31.4638 22.6359 31.4638C22.7022 31.4638 22.7803 31.4661 22.8703 31.4709C22.9626 31.4756 23.0348 31.4815 23.0869 31.4886V32.5043C23.0443 32.4924 22.9685 32.4794 22.8596 32.4652C22.7507 32.4486 22.6418 32.4403 22.5329 32.4403C22.282 32.4403 22.0583 32.4936 21.8618 32.6001C21.6676 32.7043 21.5138 32.8499 21.4001 33.0369C21.2865 33.2216 21.2297 33.4323 21.2297 33.669V37H20.1679ZM26.8742 31.5455V32.3977H23.8948V31.5455H26.8742ZM24.6938 30.2386H25.7556V35.3984C25.7556 35.6044 25.7864 35.7595 25.8479 35.8636C25.9095 35.9654 25.9888 36.0353 26.0858 36.0732C26.1853 36.1087 26.293 36.1264 26.409 36.1264C26.4942 36.1264 26.5688 36.1205 26.6327 36.1087C26.6966 36.0968 26.7464 36.0874 26.7819 36.0803L26.9736 36.9574C26.9121 36.9811 26.8245 37.0047 26.7108 37.0284C26.5972 37.0545 26.4552 37.0687 26.2847 37.071C26.0054 37.0758 25.7449 37.026 25.5035 36.9219C25.262 36.8177 25.0667 36.6567 24.9175 36.4389C24.7684 36.2211 24.6938 35.9477 24.6938 35.6186V30.2386ZM32.0482 32.8771L31.0858 33.0476C31.0456 32.9245 30.9817 32.8073 30.8941 32.696C30.8089 32.5848 30.6929 32.4936 30.5461 32.4226C30.3993 32.3516 30.2158 32.3161 29.9956 32.3161C29.695 32.3161 29.444 32.3835 29.2428 32.5185C29.0416 32.651 28.941 32.8227 28.941 33.0334C28.941 33.2157 29.0084 33.3625 29.1434 33.4737C29.2783 33.585 29.4961 33.6761 29.7968 33.7472L30.6633 33.946C31.1652 34.062 31.5392 34.2408 31.7854 34.4822C32.0316 34.7237 32.1547 35.0374 32.1547 35.4233C32.1547 35.75 32.06 36.0412 31.8706 36.2969C31.6836 36.5502 31.422 36.7491 31.0858 36.8935C30.752 37.0379 30.365 37.1101 29.9246 37.1101C29.3138 37.1101 28.8155 36.9799 28.4296 36.7195C28.0437 36.4567 27.807 36.0838 27.7194 35.6009L28.7456 35.4446C28.8096 35.7121 28.941 35.9145 29.1398 36.0518C29.3387 36.1868 29.5979 36.2543 29.9175 36.2543C30.2655 36.2543 30.5437 36.1821 30.752 36.0376C30.9604 35.8909 31.0645 35.7121 31.0645 35.5014C31.0645 35.331 31.0006 35.1877 30.8728 35.0717C30.7473 34.9557 30.5544 34.8681 30.2939 34.8089L29.3706 34.6065C28.8617 34.4905 28.4852 34.3059 28.2414 34.0526C27.9999 33.7992 27.8792 33.4785 27.8792 33.0902C27.8792 32.7682 27.9691 32.4865 28.1491 32.245C28.329 32.0036 28.5776 31.8153 28.8948 31.6804C29.212 31.5431 29.5754 31.4744 29.985 31.4744C30.5745 31.4744 31.0385 31.6023 31.377 31.858C31.7156 32.1113 31.9393 32.451 32.0482 32.8771Z" fill="#00C853"/>
<rect width="24" height="24" transform="translate(5)" fill="#00C853"/>
<path d="M10 21V3M17 21V9M24 21V15" stroke="black" stroke-width="2" stroke-linecap="round" stroke-linejoin="round"/>
</svg>
