<svg width="31" height="43" viewBox="0 0 31 43" fill="none" xmlns="http://www.w3.org/2000/svg">
<rect x="0.450195" width="30" height="27" rx="4" transform="rotate(0.955139 0.450195 0)" fill="#00C853"/>
<path d="M18.8037 23.9343L18.9537 14.9355C18.9587 14.6372 18.8318 14.3489 18.6009 14.134C18.3701 13.9192 18.0541 13.7954 17.7227 13.7898L12.7234 13.7065C12.3919 13.701 12.072 13.8142 11.8341 14.0212C11.5962 14.2282 11.4597 14.5122 11.4548 14.8105L11.3047 23.8092M4.01207 11.3109C4.01744 10.9837 4.10208 10.6617 4.26007 10.3674C4.41807 10.0731 4.64562 9.81356 4.92686 9.60695L13.7882 3.00374C14.2451 2.66808 14.8198 2.48933 15.4105 2.49918C16.0013 2.50903 16.5698 2.70684 17.0152 3.05754L25.6515 9.95246C25.9257 10.1683 26.1444 10.4353 26.2925 10.7347C26.4406 11.0341 26.5145 11.3587 26.5089 11.686L26.3402 21.8096C26.3302 22.4062 26.0573 22.9741 25.5815 23.3882C25.1057 23.8022 24.466 24.0287 23.803 24.0176L6.30544 23.7259C5.64249 23.7148 5.01065 23.4672 4.54891 23.0375C4.08716 22.6078 3.83335 22.0312 3.8433 21.4345L4.01207 11.3109Z" stroke="black" stroke-width="2" stroke-linecap="round" stroke-linejoin="round"/>
<path d="M1.445 40.2482V32.9754H2.5423V36.136H6.16801V32.9754H7.26887V40.2482H6.16801V37.077H2.5423V40.2482H1.445ZM11.0792 40.3583C10.5679 40.3583 10.1216 40.2411 9.74046 40.0067C9.3593 39.7723 9.06337 39.4444 8.85267 39.023C8.64197 38.6016 8.53662 38.1092 8.53662 37.5458C8.53662 36.9799 8.64197 36.4851 8.85267 36.0614C9.06337 35.6376 9.3593 35.3085 9.74046 35.0742C10.1216 34.8398 10.5679 34.7226 11.0792 34.7226C11.5906 34.7226 12.0369 34.8398 12.418 35.0742C12.7992 35.3085 13.0951 35.6376 13.3058 36.0614C13.5165 36.4851 13.6218 36.9799 13.6218 37.5458C13.6218 38.1092 13.5165 38.6016 13.3058 39.023C13.0951 39.4444 12.7992 39.7723 12.418 40.0067C12.0369 40.2411 11.5906 40.3583 11.0792 40.3583ZM11.0828 39.4669C11.4142 39.4669 11.6888 39.3793 11.9066 39.2041C12.1245 39.0289 12.2854 38.7958 12.3896 38.5046C12.4961 38.2134 12.5494 37.8926 12.5494 37.5422C12.5494 37.1942 12.4961 36.8746 12.3896 36.5834C12.2854 36.2898 12.1245 36.0543 11.9066 35.8767C11.6888 35.6992 11.4142 35.6104 11.0828 35.6104C10.749 35.6104 10.472 35.6992 10.2518 35.8767C10.034 36.0543 9.87185 36.2898 9.76531 36.5834C9.66115 36.8746 9.60906 37.1942 9.60906 37.5422C9.60906 37.8926 9.66115 38.2134 9.76531 38.5046C9.87185 38.7958 10.034 39.0289 10.2518 39.2041C10.472 39.3793 10.749 39.4669 11.0828 39.4669ZM14.807 40.2482V34.7936H15.8262V35.6814H15.8937C16.0073 35.3807 16.1932 35.1464 16.4512 34.9783C16.7093 34.8078 17.0182 34.7226 17.3781 34.7226C17.7426 34.7226 18.048 34.8078 18.2943 34.9783C18.5428 35.1487 18.7263 35.3831 18.8447 35.6814H18.9015C19.0317 35.3902 19.2389 35.1582 19.5229 34.9854C19.807 34.8102 20.1456 34.7226 20.5386 34.7226C21.0334 34.7226 21.437 34.8777 21.7495 35.1878C22.0644 35.4979 22.2218 35.9655 22.2218 36.5905V40.2482H21.16V36.6899C21.16 36.3206 21.0594 36.0531 20.8582 35.8874C20.6569 35.7217 20.4167 35.6388 20.1373 35.6388C19.7917 35.6388 19.5229 35.7453 19.3312 35.9584C19.1394 36.1691 19.0435 36.4402 19.0435 36.7716V40.2482H17.9853V36.6225C17.9853 36.3265 17.893 36.0886 17.7083 35.9087C17.5237 35.7288 17.2834 35.6388 16.9874 35.6388C16.7862 35.6388 16.6004 35.6921 16.4299 35.7986C16.2618 35.9028 16.1257 36.0484 16.0215 36.2354C15.9197 36.4224 15.8688 36.639 15.8688 36.8852V40.2482H14.807ZM25.9958 40.3583C25.4584 40.3583 24.9955 40.2434 24.6073 40.0138C24.2214 39.7818 23.9231 39.4563 23.7124 39.0372C23.5041 38.6158 23.3999 38.1222 23.3999 37.5564C23.3999 36.9977 23.5041 36.5053 23.7124 36.0791C23.9231 35.653 24.2167 35.3204 24.5931 35.0813C24.9719 34.8422 25.4146 34.7226 25.9212 34.7226C26.229 34.7226 26.5273 34.7735 26.8161 34.8753C27.1049 34.9771 27.3642 35.1369 27.5938 35.3547C27.8234 35.5725 28.0045 35.8554 28.1371 36.2034C28.2697 36.5491 28.336 36.9693 28.336 37.4641V37.8405H24V37.045H27.2955C27.2955 36.7657 27.2387 36.5183 27.125 36.3029C27.0114 36.0851 26.8516 35.9134 26.6456 35.7879C26.442 35.6625 26.2029 35.5997 25.9283 35.5997C25.63 35.5997 25.3696 35.6731 25.1471 35.8199C24.9269 35.9643 24.7564 36.1537 24.6357 36.3881C24.5173 36.6201 24.4581 36.8722 24.4581 37.1445V37.7659C24.4581 38.1305 24.5221 38.4406 24.6499 38.6963C24.7801 38.952 24.9612 39.1473 25.1932 39.2823C25.4252 39.4148 25.6963 39.4811 26.0064 39.4811C26.2077 39.4811 26.3911 39.4527 26.5569 39.3959C26.7226 39.3367 26.8658 39.2491 26.9866 39.1331C27.1073 39.0171 27.1996 38.8739 27.2635 38.7034L28.2685 38.8845C28.188 39.1805 28.0436 39.4397 27.8353 39.6622C27.6293 39.8824 27.3701 40.054 27.0576 40.1771C26.7474 40.2979 26.3935 40.3583 25.9958 40.3583Z" fill="#00C853"/>
</svg>
