<svg width="82" height="102" viewBox="0 0 82 102" fill="none" xmlns="http://www.w3.org/2000/svg">
<path d="M53 51H33M53 28.7778H33M69 78.7778V12.1111C69 9.16426 68.1571 6.33811 66.6569 4.25437C65.1566 2.17063 63.1217 1 61 1H9M9 1C11.1217 1 13.1566 2.17063 14.6569 4.25437C16.1571 6.33811 17 9.16426 17 12.1111V89.8889C17 92.8357 17.8429 95.6619 19.3431 97.7456C20.8434 99.8294 22.8783 101 25 101M9 1C6.87827 1 4.84344 2.17063 3.34315 4.25437C1.84285 6.33811 1 9.16426 1 12.1111V23.2222C1 24.6956 1.42143 26.1087 2.17157 27.1506C2.92172 28.1925 3.93913 28.7778 5 28.7778H17M25 101H73C75.1217 101 77.1566 99.8294 78.6569 97.7456C80.1571 95.6619 81 92.8357 81 89.8889V84.3333C81 82.8599 80.5786 81.4468 79.8284 80.405C79.0783 79.3631 78.0609 78.7778 77 78.7778H37C35.9391 78.7778 34.9217 79.3631 34.1716 80.405C33.4214 81.4468 33 82.8599 33 84.3333V89.8889C33 92.8357 32.1571 95.6619 30.6569 97.7456C29.1566 99.8294 27.1217 101 25 101Z" stroke="#B0B0B0" stroke-width="2" stroke-linecap="round" stroke-linejoin="round"/>
</svg>
